<svg width="32" height="16" viewBox="0 0 32 16" fill="none" xmlns="http://www.w3.org/2000/svg">
<path fill-rule="evenodd" clip-rule="evenodd" d="M23.6426 0.0836225C23.5096 0.138829 23.3887 0.21974 23.287 0.321722C23.185 0.423446 23.1041 0.54429 23.0489 0.677332C22.9937 0.810374 22.9653 0.953001 22.9653 1.09704C22.9653 1.24108 22.9937 1.38371 23.0489 1.51675C23.1041 1.6498 23.185 1.77064 23.287 1.87236L27.9888 6.57244H1.09509C0.804651 6.57244 0.526112 6.68781 0.320743 6.89318C0.115375 7.09855 0 7.37709 0 7.66752C0 7.95796 0.115375 8.2365 0.320743 8.44186C0.526112 8.64723 0.804651 8.76261 1.09509 8.76261H27.9889L23.287 13.4627C23.0814 13.6684 22.9658 13.9473 22.9658 14.2381C22.9658 14.5289 23.0814 14.8078 23.287 15.0134C23.4926 15.219 23.7715 15.3345 24.0623 15.3345C24.3531 15.3345 24.632 15.219 24.8376 15.0134L31.4081 8.44288C31.5101 8.34115 31.591 8.22031 31.6462 8.08727C31.7014 7.95422 31.7299 7.8116 31.7299 7.66756C31.7299 7.52351 31.7014 7.38089 31.6462 7.24785C31.591 7.1148 31.5101 6.99396 31.4081 6.89223L24.8376 0.321722C24.7359 0.21974 24.6151 0.138829 24.482 0.0836225C24.349 0.0284161 24.2064 0 24.0623 0C23.9183 0 23.7756 0.0284161 23.6426 0.0836225Z" fill="#48B84A"/>
</svg>
