<svg width="28" height="28" viewBox="0 0 28 28" fill="none" xmlns="http://www.w3.org/2000/svg">
<path d="M22.3672 4.97119C22.2906 4.99853 22.143 5.05869 22.0391 5.10791C21.9352 5.1626 19.2938 7.75478 16.1711 10.872L10.5 16.5431L8.32346 14.372C6.83596 12.8899 6.0758 12.1681 5.90627 12.0806C5.53439 11.8946 4.9383 11.8728 4.51174 12.0368C4.23283 12.1407 4.09064 12.2556 3.52189 12.8188C2.73439 13.6118 2.60861 13.8251 2.60314 14.4376C2.59221 15.2251 2.38986 14.979 6.31096 18.9165C8.69533 21.3118 9.88752 22.4657 10.0352 22.5368C10.3141 22.6681 10.686 22.6681 10.9649 22.5368C11.118 22.4657 13.3383 20.2782 18.1891 15.4165C26.0094 7.58525 25.4078 8.24697 25.3969 7.4376C25.3914 6.8251 25.2656 6.61181 24.4781 5.81885C23.9203 5.26103 23.7672 5.14072 23.4992 5.04228C23.1766 4.92197 22.6461 4.88916 22.3672 4.97119Z" fill="white"/>
</svg>
