<svg width="70" height="70" viewBox="0 0 70 70" fill="none" xmlns="http://www.w3.org/2000/svg">
<g filter="url(#filter0_d_19:165)">
<circle cx="34.8001" cy="21.7999" r="16.7999" fill="#A3DBA4"/>
</g>
<g clip-path="url(#clip0_19:165)">
<path d="M31.6568 13.0352C30.4966 13.0844 29.7021 13.232 29.0306 13.5203C28.4013 13.791 28.0286 14.0406 27.5646 14.5012C26.9388 15.1234 26.5486 15.823 26.3025 16.7617C26.0845 17.5914 26.0353 18.5441 26.0353 22C26.0353 25.3996 26.081 26.3629 26.2849 27.1926C26.7911 29.2562 28.3029 30.5711 30.5282 30.877C31.1646 30.9613 32.5005 31 35.0529 31C37.4259 31 38.7935 30.9648 39.4087 30.891C40.6673 30.7434 41.6517 30.3074 42.4286 29.5621C43.304 28.7184 43.7681 27.7094 43.9368 26.2715C44.0036 25.709 44.0036 18.2066 43.9368 17.6758C43.7997 16.6 43.4798 15.7141 42.9736 15.0355C42.7239 14.698 42.1896 14.1883 41.8556 13.9598C41.0997 13.45 40.1892 13.1687 38.9904 13.0668C38.4243 13.0211 32.6165 12.9965 31.6568 13.0352ZM39.2611 14.7332C40.263 14.8809 40.8255 15.1305 41.3669 15.6684C41.7185 16.0199 41.9118 16.3293 42.0841 16.8074C42.3724 17.616 42.4005 18.0449 42.4005 22.0176C42.4005 24.3062 42.3864 25.4066 42.3548 25.7758C42.2529 26.9957 42.0103 27.6531 41.4407 28.2613C40.8466 28.8941 40.1048 29.207 38.9552 29.3125C38.3329 29.3723 33.1896 29.4004 32.0048 29.3512C31.4704 29.3301 30.9114 29.2949 30.7603 29.2738C30.0958 29.1824 29.4525 28.9469 29.0517 28.6551C28.8021 28.4688 28.4013 28.0328 28.2536 27.7867C27.9583 27.2945 27.7825 26.602 27.7228 25.723C27.6173 24.127 27.6525 18.6496 27.772 17.7426C27.8986 16.8039 28.1904 16.1711 28.7423 15.6367C29.347 15.0496 30.1415 14.7648 31.372 14.6875C31.6392 14.6734 33.4357 14.6629 35.3693 14.6699C38.3681 14.677 38.9411 14.684 39.2611 14.7332Z" fill="#48B84A"/>
<path d="M39.3665 16.2344C38.9693 16.4348 38.7794 16.7441 38.7794 17.2012C38.7794 17.5316 38.8568 17.7285 39.0818 17.9535C39.3068 18.175 39.5036 18.2559 39.8341 18.2559C40.0697 18.2559 40.147 18.2418 40.3158 18.1574C40.6708 17.9816 40.8712 17.6758 40.8994 17.268C40.924 16.9059 40.8431 16.6949 40.5935 16.4418C40.3615 16.2098 40.1576 16.1289 39.8165 16.1289C39.6267 16.1289 39.5423 16.15 39.3665 16.2344Z" fill="#48B84A"/>
<path d="M34.2128 17.4508C33.2881 17.6195 32.469 18.052 31.7799 18.7445C30.8659 19.6551 30.4264 20.7203 30.4264 22C30.4264 22.7734 30.5706 23.4098 30.8905 24.0496C31.8749 26.0043 34.0405 27.0063 36.1463 26.4824C36.976 26.275 37.6159 25.9164 38.2381 25.3152C38.7971 24.7738 39.1733 24.1832 39.4088 23.4766C39.5776 22.9668 39.6409 22.5731 39.6409 22C39.6409 21.4305 39.5776 21.0332 39.4124 20.534C39.1874 19.859 38.8604 19.3246 38.3506 18.7973C37.6545 18.0801 36.7862 17.616 35.8299 17.4473C35.4397 17.3805 34.5924 17.3805 34.2128 17.4508ZM35.6049 19.0609C37.2151 19.3703 38.2838 20.9524 37.9745 22.5731C37.7846 23.5539 37.0639 24.4258 36.1428 24.7809C35.6928 24.9567 35.4327 24.9988 34.9124 24.9777C34.5432 24.9637 34.3991 24.9426 34.1565 24.8652C33.0913 24.5277 32.3143 23.6664 32.0963 22.5836C32.012 22.1652 32.0436 21.5149 32.1702 21.1211C32.5006 20.0734 33.3831 19.2754 34.4342 19.0645C34.7471 19.0012 35.2885 19.0012 35.6049 19.0609Z" fill="#48B84A"/>
</g>
<defs>
<filter id="filter0_d_19:165" x="0.00012207" y="0" width="69.5999" height="69.5999" filterUnits="userSpaceOnUse" color-interpolation-filters="sRGB">
<feFlood flood-opacity="0" result="BackgroundImageFix"/>
<feColorMatrix in="SourceAlpha" type="matrix" values="0 0 0 0 0 0 0 0 0 0 0 0 0 0 0 0 0 0 127 0" result="hardAlpha"/>
<feOffset dy="13"/>
<feGaussianBlur stdDeviation="9"/>
<feColorMatrix type="matrix" values="0 0 0 0 0.0658854 0 0 0 0 0.0730469 0 0 0 0 0.1375 0 0 0 0.08 0"/>
<feBlend mode="normal" in2="BackgroundImageFix" result="effect1_dropShadow_19:165"/>
<feBlend mode="normal" in="SourceGraphic" in2="effect1_dropShadow_19:165" result="shape"/>
</filter>
<clipPath id="clip0_19:165">
<rect width="18" height="18" fill="white" transform="translate(26.0001 13)"/>
</clipPath>
</defs>
</svg>
