<svg width="70" height="70" viewBox="0 0 70 70" fill="none" xmlns="http://www.w3.org/2000/svg">
<g filter="url(#filter0_d_19:172)">
<circle cx="34.8001" cy="21.7999" r="16.7999" fill="#A3DBA4"/>
</g>
<g clip-path="url(#clip0_19:172)">
<path d="M28.5001 14.05C27.9782 14.1625 27.4439 14.5812 27.2064 15.0625C26.8439 15.8031 26.9814 16.6719 27.5501 17.2656C28.3001 18.0469 29.547 18.0469 30.2939 17.2656C30.8657 16.6687 31.0001 15.8062 30.6345 15.0656C30.4689 14.7281 30.1032 14.3625 29.7751 14.2062C29.3626 14.0094 28.9314 13.9562 28.5001 14.05Z" fill="#47B749"/>
<path d="M38.3001 19.1094C37.3345 19.2938 36.5126 19.8188 36.0064 20.5781L35.8595 20.7969L35.8501 20.0531L35.8439 19.3125H34.2501H32.6564V24.6563V30H34.3126H35.9689V27.1938C35.9689 25.45 35.9814 24.2563 36.0032 24.0344C36.1095 22.8938 36.5345 22.2594 37.3345 22.0469C37.6189 21.9688 38.1001 21.9531 38.3689 22.0125C38.8845 22.1219 39.172 22.3438 39.3907 22.7938C39.672 23.3813 39.6876 23.5875 39.6876 27.0969V30H41.3439H43.0001V26.7875C43.0001 24.95 42.9876 23.3906 42.9689 23.1406C42.8626 21.6688 42.5407 20.7313 41.9095 20.0563C41.4845 19.6031 40.9189 19.3094 40.1595 19.15C39.7501 19.0656 38.6626 19.0438 38.3001 19.1094Z" fill="#47B749"/>
<path d="M27.272 19.3344C27.2595 19.3438 27.2501 21.75 27.2501 24.6781V30H28.922H30.5939L30.5876 24.6625L30.5782 19.3281L28.9345 19.3187C28.0314 19.3156 27.2814 19.3219 27.272 19.3344Z" fill="#47B749"/>
</g>
<defs>
<filter id="filter0_d_19:172" x="0.00012207" y="0" width="69.5999" height="69.5999" filterUnits="userSpaceOnUse" color-interpolation-filters="sRGB">
<feFlood flood-opacity="0" result="BackgroundImageFix"/>
<feColorMatrix in="SourceAlpha" type="matrix" values="0 0 0 0 0 0 0 0 0 0 0 0 0 0 0 0 0 0 127 0" result="hardAlpha"/>
<feOffset dy="13"/>
<feGaussianBlur stdDeviation="9"/>
<feColorMatrix type="matrix" values="0 0 0 0 0.0658854 0 0 0 0 0.0730469 0 0 0 0 0.1375 0 0 0 0.08 0"/>
<feBlend mode="normal" in2="BackgroundImageFix" result="effect1_dropShadow_19:172"/>
<feBlend mode="normal" in="SourceGraphic" in2="effect1_dropShadow_19:172" result="shape"/>
</filter>
<clipPath id="clip0_19:172">
<rect width="16" height="16" fill="white" transform="translate(27.0001 14)"/>
</clipPath>
</defs>
</svg>
