<svg width="32" height="32" viewBox="0 0 32 32" fill="none" xmlns="http://www.w3.org/2000/svg">
<path d="M5.41291 0.713869C4.65223 0.879501 4.51114 0.989922 2.52968 2.97751C0.799741 4.70132 0.664782 4.85468 0.462342 5.2841C0.124943 5.9957 0.0451936 6.37605 0.00838641 7.38211C-0.0284208 8.39431 0.0513282 9.06297 0.358055 10.2285C2.20455 17.2403 10.4616 26.4666 18.3629 30.3437C20.7063 31.4908 22.4792 31.9939 24.2214 32C25.2888 32 25.8286 31.8896 26.5709 31.5276C27.0494 31.2945 27.1721 31.178 28.8959 29.4603C30.8222 27.5341 30.9326 27.393 31.178 26.5771C31.3068 26.1477 31.3068 25.3379 31.178 24.9085C30.9571 24.1723 30.8651 24.0619 28.4297 21.6142C27.1476 20.3198 25.9268 19.142 25.7244 18.9948C24.5097 18.1298 22.9454 18.2525 21.9271 19.2892C21.6204 19.6021 21.4977 19.7861 21.2891 20.283C21.1419 20.6143 20.9517 20.9885 20.8597 21.1112C20.2708 21.9087 19.142 22.4117 18.1789 22.3136C16.7434 22.1602 14.6024 20.8597 12.7866 19.0439C10.5905 16.8477 9.29607 14.3203 9.60894 12.848C9.75616 12.1609 10.2408 11.4432 10.8113 11.0628C10.9463 10.9647 11.2407 10.8113 11.4616 10.7193C12.0996 10.4494 12.2529 10.3574 12.5535 10.0997C13.5718 9.2102 13.7927 7.54161 13.0504 6.35764C12.8357 6.00797 8.60287 1.7322 8.08757 1.33346C7.67656 1.0206 7.13672 0.775213 6.65209 0.689329C6.192 0.603447 5.88527 0.609581 5.41291 0.713869Z" fill="white"/>
</svg>
