<svg width="19" height="36" viewBox="0 0 19 36" fill="none" xmlns="http://www.w3.org/2000/svg">
<path d="M11.953 0.112499C8.47957 0.674999 6.29988 2.9039 5.64597 6.57422C5.5616 7.0664 5.52644 7.89609 5.50535 10.35L5.47019 13.5H2.87566H0.281128V16.6992V19.8984H2.88269H5.48425V27.9492V36H8.71863H11.953V27.9492V19.8984H14.4491C15.8202 19.8984 16.9452 19.8773 16.9452 19.8562C16.9452 19.8352 17.121 18.4289 17.3319 16.7344C17.5428 15.0398 17.7186 13.6195 17.7186 13.5773C17.7186 13.5211 16.8468 13.5 14.8288 13.5H11.946L11.9671 10.6664C11.9882 8.16328 12.0022 7.80469 12.1147 7.52344C12.3889 6.82031 12.8038 6.43359 13.5491 6.1664C13.9147 6.03281 14.1608 6.01875 16.1225 5.99062L18.2811 5.9625V3.12187C18.2811 0.907028 18.26 0.267185 18.1968 0.246094C17.9577 0.168747 16.0944 0.0632782 14.4491 0.0351562C13.0218 0.00703049 12.4733 0.0281219 11.953 0.112499Z" fill="#48B74A"/>
</svg>
