<svg width="38" height="38" viewBox="0 0 38 38" fill="none" xmlns="http://www.w3.org/2000/svg">
<path d="M12.0426 0.501842C9.66017 0.602913 8.02856 0.906136 6.64963 1.49813C5.35734 2.05404 4.59207 2.56662 3.63909 3.51238C2.35402 4.79023 1.55265 6.22692 1.04729 8.15453C0.599677 9.85833 0.498604 11.8148 0.498604 18.9116C0.498604 25.8929 0.592457 27.871 1.01119 29.5748C2.0508 33.8127 5.15519 36.5128 9.72514 37.1409C11.0319 37.3141 13.7753 37.3936 19.0167 37.3936C23.8898 37.3936 26.6982 37.3214 27.9616 37.1697C30.5462 36.8665 32.5677 35.9713 34.1632 34.4408C35.9609 32.7081 36.9138 30.6361 37.2604 27.6833C37.3975 26.5282 37.3975 11.1217 37.2604 10.0316C36.9788 7.82243 36.3218 6.00311 35.2822 4.60975C34.7696 3.91667 33.6723 2.86984 32.9864 2.40057C31.4342 1.35374 29.5644 0.776184 27.1025 0.566818C25.9402 0.472961 14.0135 0.422428 12.0426 0.501842ZM27.6584 3.98886C29.716 4.29209 30.8711 4.80467 31.9829 5.90926C32.7049 6.63121 33.1019 7.26653 33.4557 8.24838C34.0477 9.90887 34.1054 10.7896 34.1054 18.9477C34.1054 23.6476 34.0766 25.9073 34.0116 26.6654C33.8022 29.1705 33.3041 30.5206 32.1345 31.7696C30.9144 33.0691 29.3911 33.7116 27.0303 33.9282C25.7525 34.0509 15.1903 34.1087 12.7573 34.0076C11.66 33.9643 10.5121 33.8921 10.2016 33.8488C8.83714 33.6611 7.51597 33.1774 6.69295 32.5781C6.18036 32.1955 5.35734 31.3003 5.05412 30.7949C4.44768 29.7842 4.0867 28.3619 3.96397 26.5571C3.74738 23.2794 3.81958 12.0314 4.06504 10.1688C4.32495 8.24116 4.92417 6.94165 6.05763 5.84428C7.29939 4.63862 8.931 4.05384 11.4578 3.89501C12.0065 3.86613 15.6957 3.84447 19.6664 3.85891C25.8247 3.87335 27.0014 3.88779 27.6584 3.98886Z" fill="#48B74A"/>
<path d="M27.875 7.07144C27.0592 7.48295 26.6693 8.11827 26.6693 9.0568C26.6693 9.73544 26.8282 10.1397 27.2902 10.6018C27.7523 11.0566 28.1566 11.2227 28.8352 11.2227C29.3189 11.2227 29.4777 11.1938 29.8243 11.0205C30.5535 10.6595 30.965 10.0314 31.0227 9.19397C31.0733 8.45036 30.9072 8.01719 30.3946 7.49739C29.9181 7.0209 29.4994 6.85485 28.7991 6.85485C28.4093 6.85485 28.236 6.89817 27.875 7.07144Z" fill="#48B74A"/>
<path d="M17.2914 9.56924C15.3927 9.91578 13.7105 10.8038 12.2955 12.226C10.4184 14.0959 9.516 16.2834 9.516 18.9113C9.516 20.4996 9.812 21.8063 10.469 23.1203C12.4904 27.1343 16.9377 29.1919 21.2621 28.1162C22.966 27.6902 24.2799 26.9538 25.5578 25.7193C26.7057 24.6075 27.4781 23.3946 27.9619 21.9435C28.3084 20.8967 28.4383 20.0881 28.4383 18.9113C28.4383 17.7417 28.3084 16.9259 27.9691 15.9008C27.507 14.5146 26.8356 13.4172 25.7888 12.3343C24.3593 10.8615 22.5761 9.90856 20.6124 9.56202C19.811 9.42485 18.0711 9.42485 17.2914 9.56924ZM20.1503 12.8758C23.4569 13.5111 25.6516 16.7599 25.0163 20.0881C24.6264 22.1023 23.1464 23.8928 21.2549 24.6219C20.3308 24.9829 19.7966 25.0695 18.7281 25.0262C17.97 24.9973 17.674 24.954 17.1759 24.7952C14.9884 24.1021 13.3929 22.3333 12.9453 20.1097C12.772 19.2506 12.837 17.915 13.0969 17.1064C13.7755 14.955 15.5876 13.3162 17.7462 12.883C18.3888 12.753 19.5006 12.753 20.1503 12.8758Z" fill="#48B74A"/>
</svg>
