<svg width="34" height="34" viewBox="0 0 34 34" fill="none" xmlns="http://www.w3.org/2000/svg">
<path d="M3.5596 0.586366C2.48791 0.81739 1.39054 1.67731 0.902822 2.66559C0.15841 4.1865 0.440773 5.97052 1.60873 7.18981C3.14889 8.79415 5.70941 8.79415 7.24316 7.18981C8.41753 5.9641 8.69348 4.19291 7.94265 2.672C7.60253 1.97893 6.8517 1.2281 6.17788 0.907233C5.33079 0.50294 4.4452 0.393846 3.5596 0.586366Z" fill="#48B74A"/>
<path d="M23.6843 10.9759C21.7013 11.3545 20.0135 12.4326 18.9739 13.992L18.6723 14.4413L18.6531 12.9139L18.6402 11.393H15.3674H12.0945V22.3667V33.3403H15.4957H18.8969V27.5776C18.8969 23.9967 18.9226 21.5453 18.9675 21.0896C19.1857 18.7473 20.0585 17.4446 21.7013 17.0082C22.2853 16.8478 23.2736 16.8157 23.8255 16.9376C24.8843 17.1622 25.4747 17.6178 25.9239 18.5419C26.5015 19.7484 26.5336 20.1719 26.5336 27.3786V33.3403H29.9348H33.336V26.7433C33.336 22.9699 33.3103 19.7676 33.2718 19.2543C33.0536 16.2317 32.3926 14.3065 31.0963 12.9203C30.2235 11.9898 29.062 11.3866 27.5026 11.0593C26.6619 10.886 24.4287 10.8411 23.6843 10.9759Z" fill="#48B74A"/>
<path d="M1.03746 11.4379C1.01179 11.4572 0.992538 16.3985 0.992538 22.4116V33.3403H4.42582H7.8591L7.84626 22.3795L7.82701 11.4251L4.45149 11.4058C2.59687 11.3994 1.05671 11.4123 1.03746 11.4379Z" fill="#48B74A"/>
</svg>
