<svg width="35" height="28" viewBox="0 0 35 28" fill="none" xmlns="http://www.w3.org/2000/svg">
<path d="M22.4663 0.294502C19.7569 0.785908 17.612 2.76481 16.9015 5.44763C16.7753 5.90583 16.7487 6.17809 16.7487 7.0945C16.7421 7.6988 16.762 8.31638 16.7952 8.47575L16.8417 8.76794L16.3968 8.72145C13.4683 8.45583 11.1042 7.78513 8.74678 6.55661C6.56866 5.42106 4.30421 3.63474 2.91631 1.96794C2.70381 1.7156 2.5046 1.52302 2.47139 1.5363C2.43155 1.54958 2.2921 1.8152 2.15264 2.13396C1.19639 4.29216 1.37569 6.78239 2.61749 8.72145C2.98272 9.28591 3.58038 9.95661 4.06514 10.3418L4.56319 10.7468H4.29092C3.70655 10.7468 2.49131 10.4148 1.83389 10.0828C1.69444 10.0097 1.54835 9.94997 1.52178 9.94997C1.42881 9.94997 1.54835 11.1652 1.70108 11.7496C2.30538 14.0406 4.00538 15.8535 6.26983 16.6105C6.64171 16.7367 6.90733 16.8562 6.85421 16.8761C6.55538 16.989 5.57257 17.0687 4.80889 17.0422L3.94561 17.0023L3.9921 17.175C4.06514 17.4672 4.55655 18.3968 4.86202 18.8218C6.03077 20.4687 7.94991 21.5976 9.82257 21.7504C10.1015 21.7703 10.3339 21.8101 10.3339 21.8433C10.3339 21.9496 8.84639 22.8726 7.93663 23.3242C5.86475 24.3535 3.8128 24.7984 1.40225 24.7453L0.173737 24.7187L0.519049 24.9379C1.03038 25.2566 2.571 26.0336 3.26163 26.3191C6.98702 27.8664 11.3366 28.2183 15.4405 27.3086C21.4769 25.9672 26.4507 21.7703 28.9608 15.8933C30.03 13.3832 30.5679 10.9129 30.6276 8.25661L30.6476 7.0613L31.1323 6.67614C31.7433 6.17809 32.4339 5.52067 32.9585 4.9363C33.4034 4.43161 34.0542 3.56169 34.0144 3.52849C34.0011 3.51521 33.8019 3.58161 33.5694 3.67458C32.6862 4.03317 30.6476 4.55114 30.3421 4.49138C30.2691 4.4781 30.3222 4.41169 30.5148 4.28552C31.0194 3.95349 31.9159 3.03044 32.2944 2.45934C32.6265 1.96794 33.1112 0.991768 33.1112 0.819111C33.1112 0.779266 32.7062 0.951923 32.2081 1.19763C31.305 1.63591 30.1296 2.06091 29.2132 2.28005L28.7284 2.39294L28.3233 2.02106C26.7694 0.580048 24.5315 -0.0773735 22.4663 0.294502Z" fill="#48B74A"/>
</svg>
