<svg width="170" height="118" viewBox="0 0 170 118" fill="none" xmlns="http://www.w3.org/2000/svg">
<g clip-path="url(#clip0_19:239)">
<path d="M86.6409 39.9889C86.6409 28.8444 90.5792 19.6667 99.112 11.8C106.988 3.27777 116.178 -4.7053e-06 126.68 -3.7872e-06C139.807 -2.63956e-06 150.309 4.58889 158.185 14.4222C166.062 23.6 170 34.7444 170 47.8556C170 72.1111 149.653 95.7111 108.301 118L102.394 108.822C116.178 97.0222 123.398 87.8444 123.398 80.6333C123.398 78.6667 120.772 76.0444 114.865 74.0778C106.332 70.8 99.7683 67.5222 97.1429 64.9C89.9228 59.6555 86.6409 51.1333 86.6409 39.9889ZM6.81995e-06 39.9889C7.79423e-06 28.8444 3.93823 19.6666 11.1583 11.8C19.0348 3.27777 28.2239 -1.23945e-05 39.3822 -1.1419e-05C52.5097 -1.02713e-05 63.0116 4.58888 70.888 14.4222C78.7645 23.6 82.7027 34.7444 82.7027 47.8556C82.7027 72.1111 62.3552 95.7111 21.0038 118L14.4401 108.822C28.8803 97.0222 36.1004 87.8444 36.1004 80.6333C36.1004 78.6667 32.8185 76.0444 26.2548 74.0778C17.722 70.8 11.8147 67.5222 8.53281 64.9C3.28185 59.6555 5.84567e-06 51.1333 6.81995e-06 39.9889Z" fill="#233133"/>
</g>
<defs>
<clipPath id="clip0_19:239">
<rect width="170" height="118" fill="white" transform="translate(170 118) rotate(-180)"/>
</clipPath>
</defs>
</svg>
