<svg width="32" height="17" viewBox="0 0 32 17" fill="none" xmlns="http://www.w3.org/2000/svg">
<path opacity="0.5" fill-rule="evenodd" clip-rule="evenodd" d="M23.6426 16.0834C23.5096 16.0282 23.3887 15.9473 23.287 15.8453C23.185 15.7435 23.1041 15.6227 23.0489 15.4897C22.9937 15.3566 22.9653 15.214 22.9653 15.0699C22.9653 14.9259 22.9937 14.7833 23.0489 14.6502C23.1041 14.5172 23.185 14.3964 23.287 14.2946L27.9888 9.59456L1.09509 9.59456C0.804651 9.59456 0.526112 9.47918 0.320743 9.27381C0.115375 9.06844 0 8.78991 0 8.49947C0 8.20904 0.115375 7.9305 0.320743 7.72513C0.526112 7.51976 0.804651 7.40438 1.09509 7.40438L27.9889 7.40438L23.287 2.70424C23.0814 2.49862 22.9658 2.21973 22.9658 1.92892C22.9658 1.63812 23.0814 1.35923 23.287 1.1536C23.4926 0.947975 23.7715 0.832456 24.0623 0.832456C24.3531 0.832456 24.632 0.947975 24.8376 1.1536L31.4081 7.72412C31.5101 7.82584 31.591 7.94668 31.6462 8.07973C31.7014 8.21277 31.7299 8.35539 31.7299 8.49944C31.7299 8.64348 31.7014 8.7861 31.6462 8.91915C31.591 9.05219 31.5101 9.17303 31.4081 9.27476L24.8376 15.8453C24.7359 15.9473 24.6151 16.0282 24.482 16.0834C24.349 16.1386 24.2064 16.167 24.0623 16.167C23.9183 16.167 23.7756 16.1386 23.6426 16.0834Z" fill="#48B84A"/>
</svg>
