<svg width="46" height="25" viewBox="0 0 46 25" fill="none" xmlns="http://www.w3.org/2000/svg">
<path fill-rule="evenodd" clip-rule="evenodd" d="M13.9147 24.8637C14.1316 24.7737 14.3286 24.6418 14.4945 24.4755C14.6607 24.3097 14.7926 24.1126 14.8827 23.8957C14.9727 23.6788 15.019 23.4463 15.019 23.2115C15.019 22.9767 14.9727 22.7441 14.8827 22.5272C14.7926 22.3103 14.6607 22.1133 14.4945 21.9475L6.82898 14.2849L43.6739 14.2849C44.1474 14.2849 44.6015 14.0968 44.9363 13.762C45.2711 13.4272 45.4592 12.9731 45.4592 12.4996C45.4592 12.0261 45.2711 11.5719 44.9363 11.2371C44.6015 10.9023 44.1474 10.7142 43.6739 10.7142L6.82894 10.7142L14.4945 3.05159C14.8297 2.71635 15.018 2.26167 15.018 1.78758C15.018 1.31348 14.8297 0.858805 14.4945 0.523569C14.1592 0.188332 13.7046 0 13.2305 0C12.7564 0 12.3017 0.188332 11.9665 0.523569L1.2545 11.2355C1.08824 11.4014 0.956333 11.5984 0.866329 11.8153C0.776325 12.0322 0.729996 12.2647 0.729996 12.4995C0.729996 12.7344 0.776325 12.9669 0.866329 13.1838C0.956333 13.4007 1.08824 13.5977 1.2545 13.7635L11.9665 24.4755C12.1323 24.6418 12.3293 24.7737 12.5462 24.8637C12.7631 24.9537 12.9956 25 13.2305 25C13.4653 25 13.6978 24.9537 13.9147 24.8637Z" fill="#48B84A"/>
</svg>
